<svg width="137" height="137" viewBox="0 0 137 137" fill="none" xmlns="http://www.w3.org/2000/svg">
<circle cx="68.3849" cy="68.4669" r="67.8746" fill="#0E1B4F" stroke="black" stroke-width="1.02067"/>
<path fill-rule="evenodd" clip-rule="evenodd" d="M42.2859 34.3142C42.3429 38.5283 42.3793 39.0493 42.6888 40.0847C43.1096 41.4927 43.9463 43.1963 44.7415 44.2645L45.3442 45.074V48.4432V51.8122L41.551 58.137C39.4647 61.6155 37.7613 64.5622 37.7656 64.6853C37.77 64.8083 38.9391 67.7773 40.3636 71.283L42.9536 77.657L49.5679 77.6976C53.6132 77.7223 56.1821 77.7954 56.1821 77.8857C56.1821 77.967 56.3912 80.3142 56.6469 83.102L57.1116 88.1704L53.8375 98.5379C52.0369 104.24 50.5314 108.993 50.4919 109.1C50.4349 109.255 55.242 109.294 74.2028 109.294H97.9852L97.9829 108.322C97.9779 106.205 97.6579 102.794 97.2956 100.997C95.8839 93.9964 91.8966 87.5562 86.3176 83.2654C85.0293 82.2746 82.1133 80.4813 81.3253 80.1951C80.9116 80.045 80.7621 79.8805 80.6497 79.4516C78.3829 70.802 78.3905 70.46 80.9089 67.6968C83.9723 64.3358 85.8888 60.6297 86.8719 56.1655C87.1497 54.9043 87.2068 54.1371 87.2108 51.6168C87.2153 48.8651 87.1778 48.4242 86.8039 46.8402C86.3014 44.7113 85.5068 42.6574 84.4884 40.8545C81.3717 35.3371 76.2768 31.5901 69.8842 30.114C68.5451 29.8048 67.9792 29.79 55.357 29.737L42.2234 29.6816L42.2859 34.3142ZM68.2455 34.599C74.9806 35.6958 80.4108 40.6922 82.1379 47.3817C82.9322 50.4582 82.773 54.2628 81.7179 57.4253C80.8677 59.9733 79.0496 63.0279 77.512 64.4916L76.9706 65.0069L75.7622 63.3256C75.0977 62.4009 74.4895 61.5592 74.4109 61.4554C74.3195 61.3347 74.3799 60.9139 74.5781 60.2894C75.241 58.2013 75.1262 56.5038 74.1913 54.5706C72.7971 51.6877 69.8618 50.0127 66.6716 50.28L65.4717 50.3804V49.1282C65.4717 45.7689 63.2621 42.9172 59.9753 42.0342C59.4015 41.8801 57.8373 41.8259 53.9311 41.8245L48.6611 41.8226L48.1557 40.9854C47.1987 39.4 47.0029 38.6727 46.9266 36.4202L46.8566 34.3603L56.8221 34.3609C65.0172 34.3614 67.0467 34.4037 68.2455 34.599ZM59.4266 46.7939C59.7565 46.963 60.1893 47.3302 60.3881 47.6101C60.7207 48.0783 60.7535 48.3017 60.7993 50.4098L60.8492 52.7007L58.8736 55.4624C57.7872 56.9813 56.7026 58.4785 56.4635 58.7895L56.0289 59.3549L53.2981 58.666L50.5674 57.9772L49.4267 57.0413C48.7993 56.5265 48.2859 56.0695 48.2859 56.0256C48.2859 55.9818 48.6691 55.3012 49.1375 54.513L49.989 53.0802V49.7833V46.4865H54.4078C58.504 46.4865 58.8702 46.5089 59.4266 46.7939ZM68.2666 55.0367C68.8823 55.2085 69.7065 55.9459 70.0684 56.6489C70.3635 57.2219 70.3959 58.4017 70.1339 59.0368C69.9828 59.4029 69.1616 60.031 66.5443 61.7828C64.6777 63.0319 63.122 64.0539 63.0872 64.0539C63.0523 64.0539 62.8484 63.7567 62.6341 63.3932C62.4199 63.0297 61.8907 62.3853 61.4582 61.9611C61.0258 61.5367 60.6744 61.1169 60.6773 61.0283C60.6802 60.9395 61.5685 59.6475 62.6513 58.157L64.6201 55.4471L65.7039 55.1822C67.006 54.8638 67.5387 54.8337 68.2666 55.0367ZM47.2042 61.2296L48.5186 62.2921L52.537 63.272C54.7471 63.811 56.7765 64.3448 57.0468 64.4581C57.844 64.7925 58.5238 65.4646 58.9121 66.3018C59.5811 67.7442 59.365 68.7679 57.8098 71.526L56.9364 73.0747L51.5074 73.034L46.0784 72.9931L44.4596 68.9983L42.8407 65.0035L44.2852 62.5854C45.0796 61.2554 45.7657 60.1673 45.8096 60.1673C45.8535 60.1673 46.481 60.6454 47.2042 61.2296ZM72.6777 67.0169C74.3768 69.3671 74.4767 69.5457 74.3796 70.065C74.0919 71.6047 74.2703 73.1305 75.1492 76.6501C75.6239 78.5508 75.9921 80.1213 75.9673 80.1399C75.8336 80.2405 61.5635 85.2102 61.5271 85.1687C61.5033 85.1415 61.2963 83.0418 61.0668 80.5028L60.6499 75.8863L61.4363 74.5496C62.5835 72.5993 63.1572 71.4187 63.5383 70.2232L63.8763 69.1633L67.3447 66.8419C69.2524 65.5652 70.8266 64.5205 70.8429 64.5205C70.8593 64.5203 71.685 65.6437 72.6777 67.0169ZM80.6688 85.1348C87.3661 88.9005 92.0171 95.9471 93.1001 103.969L93.1893 104.63H74.9788C60.4751 104.63 56.783 104.591 56.8404 104.436C56.88 104.329 57.9056 101.093 59.1194 97.2455L61.3263 90.2496L69.9404 87.1968C74.7623 85.4879 78.6907 84.177 78.8641 84.219C79.0344 84.2604 79.8465 84.6725 80.6688 85.1348Z" fill="white"/>
</svg>
