<svg width="137" height="138" viewBox="0 0 137 138" fill="none" xmlns="http://www.w3.org/2000/svg">
<circle cx="68.3849" cy="68.6896" r="67.8746" fill="#0E1B4F" stroke="black" stroke-width="1.02067"/>
<path fill-rule="evenodd" clip-rule="evenodd" d="M56.1749 31.042C55.6702 31.2454 54.9679 32.1312 51.7835 36.58L48.7516 40.816L43.3006 42.5236C39.5112 43.7106 37.7143 44.3437 37.4057 44.6006C36.5651 45.3006 36.5482 45.44 36.5482 51.7254V57.4969L33.1408 62.0871C31.0009 64.97 29.6977 66.8594 29.6373 67.1669C29.5844 67.4361 29.5844 67.8767 29.6373 68.1461C29.6977 68.4535 31.0009 70.3429 33.1408 73.2258L36.5482 77.816V83.5876C36.5482 89.873 36.5651 90.0123 37.4057 90.7124C37.7143 90.9692 39.511 91.6022 43.3006 92.7893L48.7516 94.4967L51.9616 98.9658C53.7273 101.424 55.3783 103.631 55.6308 103.871C56.5295 104.724 56.8771 104.665 62.9757 102.637L68.4072 100.83L73.8123 102.622C76.7851 103.608 79.4436 104.414 79.72 104.414C80.3714 104.414 80.9641 104.102 81.5115 103.471C81.7532 103.192 83.3135 101.062 84.979 98.737L88.0069 94.5095L93.4634 92.7958C97.2575 91.604 99.0547 90.9694 99.3621 90.7124C100.201 90.0113 100.218 89.871 100.218 83.5876V77.816L103.625 73.2258C105.765 70.3429 107.069 68.4535 107.129 68.1461C107.182 67.8769 107.182 67.4362 107.129 67.1669C107.069 66.8594 105.765 64.97 103.625 62.0871L100.218 57.4969V51.7254C100.218 45.4419 100.201 45.3017 99.3621 44.6006C99.0547 44.3436 97.2574 43.7089 93.4631 42.5171L88.0065 40.8032L84.8004 36.3407C83.0372 33.8862 81.388 31.6819 81.1354 31.4424C80.2475 30.5995 79.8866 30.6606 73.8243 32.6792L68.4263 34.4764L63.0611 32.6922C57.8226 30.9499 56.9329 30.7368 56.1749 31.042ZM63.0015 37.5273C65.7501 38.4387 68.1718 39.1844 68.3831 39.1844C68.5945 39.1844 71.0145 38.4393 73.761 37.5285C76.5075 36.6178 78.8012 35.9229 78.858 35.9844C78.9149 36.0458 80.3297 38.0018 82.0022 40.3311C84.3273 43.5691 85.1609 44.6203 85.5435 44.7964C85.8186 44.9231 88.1758 45.6911 90.7813 46.5032L95.5186 47.9797V53.3062C95.5186 57.8357 95.5539 58.7006 95.7549 59.0868C95.8848 59.3366 97.3174 61.3263 98.9384 63.5086C100.559 65.6907 101.886 67.5573 101.886 67.6565C101.886 67.7556 100.559 69.6222 98.9384 71.8043C97.3174 73.9866 95.8848 75.9763 95.7549 76.2261C95.5539 76.6124 95.5186 77.4772 95.5186 82.0053V87.3304L90.7813 88.8103C88.1758 89.6242 85.8186 90.393 85.5435 90.5186C85.1595 90.6938 84.3351 91.7328 82.0022 94.9818C80.3297 97.3111 78.9149 99.2671 78.858 99.3286C78.8012 99.39 76.5075 98.6951 73.761 97.7844C71.0145 96.8736 68.5945 96.1285 68.3831 96.1285C68.1718 96.1285 65.7517 96.8736 63.0053 97.7844C60.2587 98.6951 57.9651 99.39 57.9082 99.3286C57.8514 99.2671 56.4366 97.3111 54.764 94.9818C52.4369 91.7408 51.6058 90.6929 51.2228 90.5171C50.9476 90.3907 48.5906 89.619 45.985 88.802L41.2477 87.3167V82.0764C41.2477 77.985 41.2022 76.7281 41.0404 76.3432C40.9263 76.072 39.4937 74.0472 37.857 71.8435C36.22 69.6397 34.8807 67.7556 34.8807 67.6565C34.8807 67.5573 36.22 65.6732 37.857 63.4694C39.4937 61.2658 40.9263 59.2409 41.0404 58.9698C41.2022 58.5849 41.2477 57.3273 41.2477 53.2327V47.9887L45.985 46.5079C48.5906 45.6935 50.9482 44.9229 51.2243 44.7958C51.6092 44.6185 52.4555 43.5503 54.8516 40.2174C56.5707 37.8265 57.9831 35.8702 57.9906 35.8702C57.998 35.8702 60.253 36.6159 63.0015 37.5273ZM80.2833 57.0966C80.0332 57.2538 76.3156 60.8803 72.022 65.1557C67.7284 69.4311 64.1464 72.9291 64.0621 72.9291C63.9776 72.9291 62.3062 71.3315 60.3474 69.3788C58.3886 67.4263 56.6019 65.7315 56.3768 65.6127C55.3896 65.092 54.0009 65.528 53.4156 66.5423C52.9984 67.2657 52.9819 67.9477 53.364 68.6794C53.7398 69.3988 62.5613 78.1328 63.1251 78.3434C63.728 78.5688 64.5419 78.5414 65.1029 78.2767C65.851 77.924 83.1786 60.6168 83.4606 59.9407C83.7688 59.2016 83.7554 58.6522 83.4134 58.0127C82.8118 56.8875 81.3143 56.4493 80.2833 57.0966Z" fill="white"/>
</svg>
