<svg width="429" height="54" viewBox="0 0 429 54" fill="none" xmlns="http://www.w3.org/2000/svg">
<path fill-rule="evenodd" clip-rule="evenodd" d="M32.7984 28.0119L54.7085 1.04869H65.5861V52.7763H52.8615V21.2808L32.7929 45.6995L12.7246 21.2808V52.7763H0V1.04869H10.9882L32.7984 28.0119ZM104.88 54C95.8358 54 87.8466 51.6143 81.4644 46.3356C75.0544 41.0345 72.2119 34.4278 72.2119 27.0145C72.2119 19.5832 75.0619 12.9638 81.5046 7.6606C87.8923 2.40256 95.8433 0 104.88 0C113.956 0 121.939 2.41082 128.361 7.68814C134.806 12.9851 137.691 19.5815 137.691 27.0145C137.691 34.4423 134.821 41.0469 128.379 46.3408C121.963 51.6136 113.943 54 104.88 54ZM185.835 32.3762V1.04869H198.667V52.7763H190.891L157.469 21.4358V52.7763H144.638V1.04869H152.523L185.835 32.3762ZM237.783 1.04869C246.793 1.04869 255.134 3.08829 261.688 8.26849C268.109 13.3433 270.879 19.7964 270.879 27.0437C270.879 34.2232 268.24 40.728 261.818 45.7418C255.231 50.8845 246.744 52.7763 237.783 52.7763H210.215V1.04869H237.783ZM277.933 52.7763V0.786616H290.872V52.7763H277.933ZM343.742 32.3762V1.04869H356.574V52.7763H348.798L315.376 21.4358V52.7763H302.545V1.04869H310.43L343.742 32.3762ZM396.189 54C387.145 54 379.156 51.6143 372.773 46.3356C366.364 41.0345 363.521 34.4278 363.521 27.0145C363.521 19.5832 366.371 12.9638 372.813 7.6606C379.201 2.40256 387.152 0 396.189 0C405.265 0 413.248 2.41082 419.67 7.68814C426.115 12.9851 429 19.5815 429 27.0145C429 34.4423 426.129 41.0469 419.688 46.3408C413.272 51.6136 405.252 54 396.189 54ZM104.898 43.87C110.417 43.87 115.122 42.4225 118.962 39.1613C122.928 35.793 124.539 31.6512 124.539 27.0145C124.539 22.3743 122.93 18.2145 118.974 14.8335C115.139 11.5562 110.403 10.13 104.898 10.13C99.3728 10.13 94.6734 11.5944 90.8378 14.8645C86.8793 18.2393 85.2577 22.375 85.2577 27.0145C85.2577 31.6512 86.868 35.793 90.834 39.1613C94.6747 42.4228 99.3793 43.87 104.898 43.87ZM223.047 11.0912V42.7341H237.783C243.234 42.7341 248.575 41.7033 252.568 38.5141C256.469 35.3976 257.833 31.3336 257.833 26.9562C257.833 22.5427 256.359 18.5569 252.456 15.4238C248.453 12.2116 243.277 11.0912 237.783 11.0912H223.047ZM396.207 43.87C401.726 43.87 406.43 42.4225 410.271 39.1613C414.237 35.793 415.847 31.6512 415.847 27.0145C415.847 22.3743 414.239 18.2145 410.282 14.8335C406.448 11.5562 401.712 10.13 396.207 10.13C390.682 10.13 385.982 11.5944 382.147 14.8645C378.188 18.2393 376.566 22.375 376.566 27.0145C376.566 31.6512 378.177 35.793 382.143 39.1613C385.984 42.4228 390.688 43.87 396.207 43.87Z" fill="white"/>
</svg>
