<svg width="134" height="134" viewBox="0 0 134 134" fill="none" xmlns="http://www.w3.org/2000/svg">
<circle cx="67" cy="67" r="67" fill="white"/>
<path d="M86.3333 55.6C86.3333 50.4018 84.2964 45.4164 80.6707 41.7407C77.045 38.065 72.1275 36 67 36C61.8725 36 56.955 38.065 53.3293 41.7407C49.7036 45.4164 47.6667 50.4018 47.6667 55.6C47.6667 78.4667 38 85 38 85H96C96 85 86.3333 78.4667 86.3333 55.6Z" fill="white" stroke="black" stroke-width="7" stroke-linecap="round" stroke-linejoin="round"/>
<path d="M73 97C72.3903 98.2166 71.5151 99.2265 70.4621 99.9285C69.4091 100.631 68.2152 101 67 101C65.7848 101 64.5909 100.631 63.5379 99.9285C62.4849 99.2265 61.6097 98.2166 61 97" fill="white"/>
<path d="M73 97C72.3903 98.2166 71.5151 99.2265 70.4621 99.9285C69.4091 100.631 68.2152 101 67 101C65.7848 101 64.5909 100.631 63.5379 99.9285C62.4849 99.2265 61.6097 98.2166 61 97" stroke="black" stroke-width="7" stroke-linecap="round" stroke-linejoin="round"/>
</svg>
