<svg width="37" height="46" viewBox="0 0 37 46" fill="none" xmlns="http://www.w3.org/2000/svg">
<path fill-rule="evenodd" clip-rule="evenodd" d="M16.9418 0.0325432C12.4815 0.506612 8.71061 2.25673 5.64046 5.27768C2.63581 8.23409 0.750386 11.982 0.147016 16.1978C-0.0459453 17.5463 -0.0494812 19.5795 0.139503 20.6067C0.971014 25.1269 4.37741 30.7572 10.6081 37.9101C12.0138 39.5238 18.3239 46 18.4905 46C18.6565 46 24.96 39.5273 26.369 37.9101C33.0098 30.288 36.5427 24.2099 36.9497 19.707C37.2158 16.7641 36.4107 13.0075 34.8844 10.0695C32.1581 4.82186 27.3301 1.26688 21.5383 0.242701C20.5109 0.0609477 17.8281 -0.0616592 16.9418 0.0325432ZM20.0019 9.36784C23.5704 10.0033 26.4179 12.7773 27.2035 16.3833C27.4518 17.5236 27.4136 19.3686 27.1177 20.5168C26.2395 23.9254 23.5804 26.4708 20.1619 27.1752C19.0762 27.3989 17.1191 27.3174 16.1021 27.006C13.5666 26.2298 11.6567 24.6217 10.5302 22.3146C9.86175 20.9457 9.62768 19.9147 9.62185 18.3146C9.61663 16.8518 9.78087 15.9598 10.2721 14.7843C11.2602 12.4196 13.3214 10.4807 15.6897 9.68802C17.0242 9.24137 18.6246 9.12254 20.0019 9.36784Z" fill="white"/>
</svg>
