<svg width="30" height="30" viewBox="0 0 30 30" fill="none" xmlns="http://www.w3.org/2000/svg">
<path d="M29.9991 22.4608V26.977C30.0008 27.3962 29.9147 27.8112 29.7464 28.1954C29.5781 28.5795 29.3313 28.9243 29.0217 29.2078C28.7122 29.4912 28.3467 29.707 27.9488 29.8413C27.5508 29.9756 27.1292 30.0255 26.7108 29.9878C22.0692 29.4844 17.6106 27.9015 13.6934 25.3662C10.0488 23.0549 6.95889 19.9711 4.64301 16.3338C2.09379 12.4065 0.507362 7.93512 0.0122432 3.28192C-0.0254508 2.86563 0.0241216 2.44607 0.157804 2.04994C0.291486 1.65381 0.506348 1.28981 0.788712 0.981099C1.07108 0.672388 1.41475 0.425738 1.79786 0.25685C2.18097 0.087963 2.59512 0.000539584 3.01394 0.000145952H7.53912C8.27115 -0.00704452 8.98083 0.251667 9.53587 0.728058C10.0909 1.20445 10.4534 1.86601 10.5559 2.58944C10.7469 4.03473 11.1011 5.45381 11.6118 6.81962C11.8147 7.35844 11.8586 7.94403 11.7383 8.507C11.618 9.06997 11.3386 9.58672 10.933 9.99602L9.01734 11.9079C11.1646 15.6767 14.2914 18.7973 18.0677 20.9403L19.9833 19.0284C20.3935 18.6237 20.9112 18.3448 21.4753 18.2247C22.0394 18.1046 22.6262 18.1485 23.1661 18.351C24.5346 18.8607 25.9565 19.2142 27.4046 19.4048C28.1374 19.508 28.8065 19.8763 29.2849 20.4398C29.7633 21.0032 30.0174 21.7225 29.9991 22.4608Z" fill="white"/>
</svg>
