<svg width="134" height="134" viewBox="0 0 134 134" fill="none" xmlns="http://www.w3.org/2000/svg">
<circle cx="67" cy="67" r="67" fill="#0E1B4F"/>
<path d="M92.9999 70.0278C93.01 73.9141 92.1021 77.7478 90.3499 81.2167C88.2724 85.3735 85.0786 88.8698 81.1263 91.314C77.174 93.7582 72.6192 95.0538 67.9722 95.0556C64.0859 95.0657 60.2522 94.1577 56.7833 92.4056L40 98L45.5944 81.2167C43.8423 77.7478 42.9343 73.9141 42.9444 70.0278C42.9462 65.3808 44.2418 60.826 46.686 56.8737C49.1302 52.9214 52.6265 49.7276 56.7833 47.6501C60.2522 45.8979 64.0859 44.99 67.9722 45.0001H69.4444C75.5816 45.3387 81.3783 47.9291 85.7246 52.2754C90.0709 56.6217 92.6613 62.4184 92.9999 68.5556V70.0278Z" stroke="white" stroke-width="7" stroke-linecap="round" stroke-linejoin="round"/>
</svg>
