<svg width="137" height="138" viewBox="0 0 137 138" fill="none" xmlns="http://www.w3.org/2000/svg">
<circle cx="68.3849" cy="68.8908" r="67.8746" fill="#0E1B4F" stroke="black" stroke-width="1.02067"/>
<path fill-rule="evenodd" clip-rule="evenodd" d="M58.427 30.2416C57.8742 30.4669 57.1187 31.1965 56.9262 31.6908C56.8397 31.9127 56.5133 33.4543 56.2008 35.1167C55.5589 38.5316 55.4639 38.8342 54.8518 39.4125C54.1803 40.0471 51.1147 41.2071 50.3701 41.1082C49.9484 41.0522 48.8788 40.4273 46.8126 39.03C44.2376 37.2884 43.755 37.022 43.0563 36.9551C42.5132 36.9031 42.0709 36.9651 41.6857 37.1472C41.3728 37.295 40.1531 38.3862 38.9754 39.5721C36.6874 41.8758 36.3488 42.4482 36.5831 43.6152C36.6434 43.9147 37.6019 45.5048 38.7133 47.1486C41.1235 50.7137 41.1146 50.6738 40.054 53.231C39.086 55.5649 38.9243 55.6815 35.8814 56.2399C31.6159 57.0228 31.2558 57.1245 30.5769 57.7351C29.7516 58.4777 29.593 59.1931 29.5978 62.1521C29.6032 65.4953 29.8368 66.2848 31.0265 66.9786C31.3001 67.1382 33.0425 67.5548 34.8988 67.9046C38.5313 68.589 39.0205 68.7859 39.4684 69.7442C40.3642 71.6604 40.7339 72.7428 40.7339 73.4487C40.7339 74.1657 40.596 74.422 38.7813 77.0765C35.7795 81.4672 35.7787 81.4498 39.1497 84.8416C42.4524 88.1648 42.5694 88.1769 46.3811 85.589C49.5778 83.4186 49.8801 83.253 50.6453 83.251C51.5206 83.2489 54.2722 84.3778 54.9257 85.0072C55.4984 85.5588 55.5414 85.7079 56.3146 89.8198C56.8954 92.9076 57.1282 93.4052 58.2582 93.9737C58.9343 94.3139 59.1989 94.3403 61.8611 94.3336C65.5063 94.3245 66.2339 94.1028 66.8366 92.8169C66.9694 92.5335 67.3464 90.8785 67.6744 89.1391C68.0025 87.3998 68.3706 85.7846 68.4927 85.5497C68.8482 84.8648 69.2263 84.6131 70.954 83.9103C73.4789 82.8833 73.4199 82.8701 77.0117 85.278C78.7773 86.4618 80.2779 87.3532 80.6092 87.4152C81.6932 87.6176 82.2889 87.2551 84.6114 84.9795C85.8127 83.8024 86.9 82.6412 87.0278 82.3989C87.1556 82.1565 87.2601 81.5907 87.2601 81.1416C87.2601 80.3669 87.1558 80.1704 85.2303 77.3225C84.114 75.6714 83.1509 74.0946 83.09 73.8187C83.0292 73.5429 83.0516 73.0737 83.1398 72.7761C83.4623 71.6893 84.478 69.4799 84.8236 69.1136C85.2877 68.6216 85.6269 68.5245 89.2694 67.8416C90.9603 67.5248 92.5579 67.1551 92.8197 67.0202C93.0816 66.8853 93.4674 66.5354 93.6773 66.2424C94.0413 65.7342 94.0611 65.5603 94.1096 62.4562C94.1376 60.6669 94.1181 59.0348 94.0664 58.8294C93.9234 58.2624 93.0421 57.349 92.4534 57.1574C92.165 57.0638 90.5284 56.7227 88.8164 56.3996C85.7023 55.812 84.9232 55.5348 84.5147 54.8704C84.4014 54.6859 84.0054 53.7858 83.6347 52.8703C83.0347 51.3886 82.9774 51.1325 83.1134 50.5414C83.2082 50.1282 84.0008 48.8048 85.211 47.0392C86.9652 44.4793 87.1628 44.1185 87.226 43.3584C87.3232 42.1919 87.0448 41.7281 84.9857 39.6267C82.8852 37.4831 82.0669 36.9155 81.0765 36.9155C80.1822 36.9155 79.9768 37.0235 77.0235 39.0456C74.5627 40.7307 73.7824 41.1571 73.1602 41.1571C72.8029 41.1571 69.8374 40.0194 69.2299 39.6494C68.5528 39.2368 68.2877 38.473 67.6631 35.1343C67.0129 31.6582 66.8261 31.1629 65.9105 30.4865C65.4818 30.1698 65.2098 30.1426 62.1425 30.11C60.1778 30.0891 58.6704 30.1424 58.427 30.2416ZM64.7342 50.8475C68.6103 51.8957 71.683 54.6656 72.9299 58.2361C74.8871 63.8408 72.454 69.9251 67.2034 72.5559C65.3268 73.4961 63.6251 73.8429 61.3799 73.7426C58.2438 73.6023 55.9162 72.5792 53.6803 70.3581C51.5236 68.2155 50.4445 65.8074 50.2814 62.7732C50.1641 60.5887 50.4951 58.9994 51.4875 56.9817C52.1225 55.691 52.4855 55.1976 53.6592 54.0304C55.6071 52.0936 57.6685 51.0201 60.2077 50.6207C61.3583 50.4396 63.6508 50.5545 64.7342 50.8475ZM96.6037 83.6143C95.2751 84.6574 86.9734 92.31 86.7098 92.7345C86.1985 93.558 86.4485 94.7436 87.2444 95.2702C87.5696 95.4854 88.1649 95.5723 89.7733 95.6395C92.7551 95.7642 92.5025 95.1641 92.5025 102.121V107.743L92.9814 108.22L93.4602 108.697H97.7398H102.019L102.421 108.297L102.823 107.896V102.273V96.6497L103.248 96.1479L103.672 95.6459H105.546C107.627 95.6459 108.289 95.4661 108.857 94.7463C109.239 94.2631 109.326 93.3879 109.044 92.8632C108.883 92.565 99.8274 84.2186 98.8286 83.4486C98.1446 82.9211 97.4174 82.9753 96.6037 83.6143Z" fill="white"/>
</svg>
