<svg width="138" height="137" viewBox="0 0 138 137" fill="none" xmlns="http://www.w3.org/2000/svg">
<circle cx="69.0412" cy="68.4455" r="68.3849" fill="white"/>
<path d="M75.4911 52.2531C74.9106 52.8354 74.5854 53.6183 74.5854 54.4336C74.5854 55.2489 74.9106 56.0318 75.4911 56.614L80.5609 61.5979C81.1532 62.1686 81.9496 62.4883 82.779 62.4883C83.6084 62.4883 84.4047 62.1686 84.997 61.5979L96.9427 49.8547C98.536 53.3159 99.0184 57.1723 98.3257 60.91C97.6329 64.6476 95.7979 68.0889 93.0652 70.7753C90.3325 73.4617 86.8318 75.2656 83.0297 75.9466C79.2277 76.6276 75.3048 76.1534 71.7838 74.5871L49.8887 96.1112C48.6281 97.3504 46.9184 98.0465 45.1357 98.0465C43.353 98.0465 41.6433 97.3504 40.3828 96.1112C39.1222 94.872 38.4141 93.1913 38.4141 91.4388C38.4141 89.6863 39.1222 88.0056 40.3828 86.7664L62.278 65.2424C60.6847 61.7811 60.2023 57.9247 60.895 54.1871C61.5878 50.4494 63.4228 47.0081 66.1555 44.3217C68.8882 41.6353 72.3889 39.8314 76.1909 39.1504C79.993 38.4694 83.9159 38.9436 87.4368 40.5099L75.5228 52.222L75.4911 52.2531Z" stroke="black" stroke-width="4.08268" stroke-linecap="round" stroke-linejoin="round"/>
</svg>
