<svg width="214" height="65" viewBox="0 0 214 65" fill="none" xmlns="http://www.w3.org/2000/svg">
<path d="M205.596 63.937C209.472 63.937 212.586 60.763 212.586 56.871L212.584 8.12108C212.584 4.23264 209.474 1.04712 205.595 1.04712H8.04453C4.17033 1.04712 1.04712 4.23068 1.04712 8.12108V56.871C1.04712 60.7648 4.1721 63.937 8.04453 63.937H205.596Z" fill="white" stroke="white" stroke-width="1.90575"/>
<path d="M48.1318 32.1556C48.0862 27.0491 52.2758 24.5648 52.4673 24.4491C50.0946 20.9587 46.417 20.4818 45.1247 20.4438C42.0359 20.1158 39.0398 22.3086 37.4664 22.3086C35.8616 22.3086 33.4386 20.4755 30.8272 20.5293C27.4668 20.5816 24.3231 22.5447 22.599 25.593C19.0407 31.8086 21.6945 40.9426 25.1036 45.9667C26.8089 48.4273 28.8016 51.1746 31.4098 51.078C33.9615 50.9718 34.9147 49.4365 37.994 49.4365C41.0451 49.4365 41.9401 51.078 44.6002 51.0162C47.3388 50.9718 49.0629 48.5445 50.7086 46.0618C52.6793 43.2416 53.4707 40.4641 53.5021 40.3215C53.4378 40.2994 48.1836 38.2761 48.1318 32.1556Z" fill="black"/>
<path d="M43.1069 17.1387C44.4793 15.407 45.4183 13.051 45.1577 10.6602C43.1712 10.7489 40.6871 12.0465 39.2565 13.7402C37.9909 15.2327 36.8603 17.679 37.1523 19.9795C39.3837 20.1475 41.6748 18.8435 43.1069 17.1387Z" fill="black"/>
<path d="M85.0582 50.7257H81.492L79.5386 44.5323H72.7487L70.8879 50.7257H67.416L74.1431 29.6406H78.2981L85.0582 50.7257ZM78.9497 41.9339L77.1832 36.4282C76.9963 35.8657 76.6461 34.5411 76.1295 32.4561H76.0667C75.861 33.3529 75.5297 34.6774 75.0743 36.4282L73.3391 41.9339H78.9497Z" fill="black"/>
<path d="M102.359 42.938C102.359 45.5237 101.666 47.5676 100.281 49.068C99.0406 50.4037 97.5002 51.0707 95.6614 51.0707C93.6765 51.0707 92.2507 50.3514 91.3824 48.9128H91.3196V56.9219H87.9717V40.5282C87.9717 38.9026 87.9293 37.2342 87.8477 35.5231H90.7919L90.9788 37.9329H91.0416C92.1581 36.1172 93.8524 35.2109 96.1262 35.2109C97.9038 35.2109 99.3877 35.9192 100.575 37.3372C101.765 38.7568 102.359 40.6232 102.359 42.938ZM98.948 43.0616C98.948 41.5818 98.6182 40.3618 97.9556 39.4017C97.2317 38.4003 96.2597 37.8997 95.0411 37.8997C94.2152 37.8997 93.4646 38.1785 92.794 38.7283C92.122 39.2828 91.6823 40.0069 91.4766 40.9037C91.3729 41.3219 91.3211 41.6642 91.3211 41.9335V44.4685C91.3211 45.5744 91.6572 46.5076 92.3292 47.2697C93.0013 48.0318 93.8744 48.4121 94.9485 48.4121C96.2094 48.4121 97.1908 47.9209 97.8928 46.9418C98.5962 45.961 98.948 44.6682 98.948 43.0616Z" fill="black"/>
<path d="M119.691 42.938C119.691 45.5237 118.999 47.5676 117.612 49.068C116.373 50.4037 114.833 51.0707 112.994 51.0707C111.009 51.0707 109.583 50.3514 108.716 48.9128H108.654V56.9219H105.306V40.5282C105.306 38.9026 105.263 37.2342 105.182 35.5231H108.126L108.313 37.9329H108.376C109.49 36.1172 111.185 35.2109 113.46 35.2109C115.236 35.2109 116.72 35.9192 117.91 37.3372C119.096 38.7568 119.691 40.6232 119.691 42.938ZM116.28 43.0616C116.28 41.5818 115.949 40.3618 115.286 39.4017C114.563 38.4003 113.594 37.8997 112.374 37.8997C111.546 37.8997 110.797 38.1785 110.125 38.7283C109.453 39.2828 109.015 40.0069 108.809 40.9037C108.707 41.3219 108.654 41.6642 108.654 41.9335V44.4685C108.654 45.5744 108.99 46.5076 109.659 47.2697C110.331 48.0302 111.204 48.4121 112.281 48.4121C113.542 48.4121 114.523 47.9209 115.225 46.9418C115.929 45.961 116.28 44.6682 116.28 43.0616Z" fill="black"/>
<path d="M139.064 44.8092C139.064 46.6027 138.447 48.062 137.208 49.1885C135.846 50.4195 133.951 51.0343 131.516 51.0343C129.267 51.0343 127.464 50.597 126.1 49.7208L126.875 46.9054C128.345 47.8021 129.958 48.2521 131.715 48.2521C132.976 48.2521 133.957 47.9637 134.662 47.3902C135.364 46.8166 135.714 46.0466 135.714 45.0865C135.714 44.2309 135.426 43.51 134.846 42.9254C134.27 42.3407 133.307 41.7973 131.963 41.295C128.304 39.9182 126.476 37.9013 126.476 35.249C126.476 33.5157 127.117 32.0945 128.4 30.9886C129.678 29.8811 131.384 29.3281 133.516 29.3281C135.418 29.3281 136.997 29.6624 138.258 30.3295L137.421 33.0831C136.244 32.4367 134.912 32.1135 133.422 32.1135C132.244 32.1135 131.324 32.4066 130.664 32.9897C130.107 33.5109 129.827 34.1463 129.827 34.8988C129.827 35.7322 130.146 36.4214 130.787 36.9633C131.344 37.464 132.357 38.0058 133.827 38.5905C135.625 39.3209 136.946 40.1749 137.795 41.154C138.641 42.13 139.064 43.3516 139.064 44.8092Z" fill="black"/>
<path d="M150.136 38.0577H146.446V45.4394C146.446 47.3169 147.096 48.2548 148.399 48.2548C148.997 48.2548 149.493 48.2025 149.886 48.098L149.979 50.6631C149.319 50.9118 148.451 51.037 147.375 51.037C146.053 51.037 145.02 50.6298 144.274 49.817C143.531 49.0027 143.157 47.6369 143.157 45.7182V38.0545H140.959V35.5195H143.157V32.7357L146.446 31.7344V35.5195H150.136V38.0577Z" fill="black"/>
<path d="M166.783 42.9982C166.783 45.3352 166.12 47.2539 164.798 48.7543C163.411 50.2991 161.571 51.0691 159.277 51.0691C157.066 51.0691 155.305 50.3292 153.993 48.8494C152.68 47.3696 152.023 45.5016 152.023 43.2501C152.023 40.8941 152.699 38.9644 154.054 37.4639C155.406 35.9619 157.23 35.2109 159.525 35.2109C161.736 35.2109 163.515 35.9508 164.857 37.4323C166.142 38.8693 166.783 40.7246 166.783 42.9982ZM163.309 43.1075C163.309 41.7054 163.012 40.5028 162.411 39.4999C161.709 38.2862 160.706 37.681 159.405 37.681C158.06 37.681 157.037 38.2878 156.335 39.4999C155.734 40.5044 155.437 41.726 155.437 43.1709C155.437 44.5731 155.734 45.7757 156.335 46.777C157.059 47.9906 158.071 48.5959 159.376 48.5959C160.654 48.5959 161.657 47.978 162.381 46.7453C162.998 45.7234 163.309 44.5081 163.309 43.1075Z" fill="black"/>
<path d="M177.667 38.4938C177.336 38.432 176.983 38.4003 176.612 38.4003C175.434 38.4003 174.524 38.8487 173.883 39.747C173.325 40.5392 173.046 41.5406 173.046 42.7495V50.7269H169.7L169.731 40.3111C169.731 38.5588 169.689 36.9633 169.605 35.5246H172.522L172.644 38.4336H172.737C173.09 37.4338 173.647 36.629 174.411 36.0253C175.156 35.4819 175.962 35.2109 176.83 35.2109C177.14 35.2109 177.419 35.2331 177.667 35.2727V38.4938Z" fill="black"/>
<path d="M192.641 42.4029C192.641 43.0082 192.602 43.5183 192.519 43.935H182.475C182.515 45.437 183 46.5857 183.933 47.3779C184.779 48.0861 185.873 48.441 187.218 48.441C188.705 48.441 190.061 48.2018 191.282 47.7217L191.806 50.0666C190.38 50.694 188.697 51.0062 186.754 51.0062C184.418 51.0062 182.584 50.3122 181.249 48.9259C179.917 47.5395 179.25 45.6779 179.25 43.3425C179.25 41.0499 179.87 39.1407 181.112 37.6181C182.413 35.9925 184.17 35.1797 186.381 35.1797C188.552 35.1797 190.196 35.9925 191.313 37.6181C192.197 38.9093 192.641 40.5064 192.641 42.4029ZM189.449 41.5268C189.471 40.5254 189.253 39.6603 188.799 38.9299C188.219 37.9904 187.329 37.5214 186.131 37.5214C185.036 37.5214 184.146 37.9793 183.466 38.8983C182.909 39.6287 182.577 40.5048 182.475 41.5252H189.449V41.5268Z" fill="black"/>
<path d="M77.8469 16.6638C77.8469 18.5286 77.2926 19.9324 76.1856 20.8751C75.1602 21.7449 73.7029 22.1806 71.8155 22.1806C70.8796 22.1806 70.0787 22.1394 69.4082 22.057V11.8678C70.2829 11.7252 71.225 11.6523 72.2426 11.6523C74.0405 11.6523 75.3957 12.0469 76.3096 12.8359C77.3334 13.7279 77.8469 15.0033 77.8469 16.6638ZM76.1118 16.7097C76.1118 15.5008 75.7946 14.574 75.1602 13.9275C74.5258 13.2827 73.5993 12.9595 72.3792 12.9595C71.861 12.9595 71.4197 12.9943 71.0539 13.0672V20.8133C71.2564 20.845 71.627 20.8592 72.1656 20.8592C73.425 20.8592 74.397 20.5059 75.0816 19.7993C75.7663 19.0926 76.1118 18.0628 76.1118 16.7097Z" fill="black"/>
<path d="M87.0508 18.2935C87.0508 19.4422 86.7257 20.3833 86.0756 21.1216C85.3941 21.8805 84.4912 22.2592 83.3638 22.2592C82.2771 22.2592 81.4119 21.8964 80.7665 21.1676C80.1227 20.4403 79.8008 19.523 79.8008 18.4171C79.8008 17.2604 80.1321 16.3114 80.7979 15.5747C81.4637 14.8379 82.3588 14.4688 83.4862 14.4688C84.5729 14.4688 85.446 14.8316 86.107 15.5588C86.7352 16.2654 87.0508 17.1781 87.0508 18.2935ZM85.3439 18.3473C85.3439 17.6581 85.1963 17.0672 84.9026 16.5744C84.5572 15.9787 84.0657 15.6808 83.4266 15.6808C82.7655 15.6808 82.263 15.9787 81.9175 16.5744C81.6223 17.0672 81.4763 17.6676 81.4763 18.3774C81.4763 19.0667 81.6239 19.6576 81.9175 20.1504C82.274 20.7461 82.7702 21.044 83.4109 21.044C84.039 21.044 84.532 20.7414 84.8869 20.1345C85.1916 19.6323 85.3439 19.0365 85.3439 18.3473Z" fill="black"/>
<path d="M99.3852 14.6172L97.069 22.086H95.5616L94.6021 18.8428C94.3587 18.0331 94.1609 17.2283 94.007 16.4297H93.9771C93.8342 17.2504 93.6364 18.0537 93.382 18.8428L92.3629 22.086H90.8381L88.6602 14.6172H90.3514L91.1883 18.1678C91.3909 19.0075 91.5573 19.8077 91.6908 20.565H91.7206C91.8431 19.9407 92.0457 19.1454 92.3315 18.1837L93.382 14.6188H94.723L95.7296 18.1076C95.973 18.9584 96.1708 19.7775 96.3231 20.5666H96.3687C96.4802 19.7981 96.6482 18.979 96.8712 18.1076L97.7694 14.6188H99.3852V14.6172Z" fill="black"/>
<path d="M107.914 22.0866H106.269V17.8088C106.269 16.4905 105.772 15.8314 104.777 15.8314C104.288 15.8314 103.894 16.0121 103.588 16.3749C103.285 16.7377 103.131 17.1655 103.131 17.6551V22.085H101.485V16.752C101.485 16.096 101.465 15.3846 101.426 14.6146H102.872L102.949 15.7823H102.994C103.186 15.4195 103.472 15.12 103.847 14.8808C104.293 14.6019 104.792 14.4609 105.339 14.4609C106.03 14.4609 106.605 14.6859 107.062 15.1375C107.63 15.6904 107.914 16.5159 107.914 17.6123V22.0866Z" fill="black"/>
<path d="M112.453 22.0873H110.809V11.1914H112.453V22.0873Z" fill="black"/>
<path d="M122.141 18.2935C122.141 19.4422 121.816 20.3833 121.165 21.1216C120.484 21.8805 119.58 22.2592 118.454 22.2592C117.365 22.2592 116.5 21.8964 115.856 21.1676C115.213 20.4403 114.891 19.523 114.891 18.4171C114.891 17.2604 115.222 16.3114 115.888 15.5747C116.554 14.8379 117.449 14.4688 118.575 14.4688C119.663 14.4688 120.534 14.8316 121.197 15.5588C121.825 16.2654 122.141 17.1781 122.141 18.2935ZM120.432 18.3473C120.432 17.6581 120.285 17.0672 119.991 16.5744C119.647 15.9787 119.154 15.6808 118.516 15.6808C117.854 15.6808 117.351 15.9787 117.007 16.5744C116.712 17.0672 116.566 17.6676 116.566 18.3774C116.566 19.0667 116.714 19.6576 117.007 20.1504C117.364 20.7461 117.86 21.044 118.501 21.044C119.129 21.044 119.62 20.7414 119.975 20.1345C120.281 19.6323 120.432 19.0365 120.432 18.3473Z" fill="black"/>
<path d="M130.108 22.0897H128.631L128.508 21.2293H128.463C127.957 21.9154 127.236 22.2592 126.3 22.2592C125.602 22.2592 125.036 22.0326 124.611 21.5827C124.224 21.1739 124.031 20.6653 124.031 20.0616C124.031 19.149 124.408 18.4535 125.167 17.9718C125.923 17.4902 126.988 17.2541 128.359 17.2652V17.1258C128.359 16.1419 127.847 15.6507 126.822 15.6507C126.091 15.6507 125.448 15.8361 124.892 16.2037L124.557 15.1136C125.245 14.6842 126.095 14.4688 127.096 14.4688C129.031 14.4688 130.001 15.4986 130.001 17.5583V20.3088C130.001 21.0551 130.038 21.6492 130.108 22.0897ZM128.4 19.523V18.3711C126.585 18.3394 125.677 18.8417 125.677 19.8763C125.677 20.266 125.781 20.5576 125.993 20.7524C126.205 20.9473 126.475 21.044 126.797 21.044C127.158 21.044 127.495 20.9283 127.803 20.6986C128.112 20.4673 128.302 20.1741 128.373 19.8145C128.39 19.7337 128.4 19.6354 128.4 19.523Z" fill="black"/>
<path d="M139.457 22.0873H137.997L137.92 20.8879H137.874C137.408 21.8005 136.613 22.2568 135.497 22.2568C134.605 22.2568 133.862 21.9035 133.273 21.1968C132.684 20.4902 132.391 19.5728 132.391 18.4463C132.391 17.2374 132.709 16.2583 133.35 15.5105C133.97 14.8133 134.73 14.4648 135.635 14.4648C136.629 14.4648 137.324 14.8022 137.72 15.4788H137.752V11.1914H139.399V20.0751C139.399 20.8023 139.418 21.4725 139.457 22.0873ZM137.752 18.9375V17.6922C137.752 17.4767 137.736 17.3024 137.706 17.1693C137.613 16.77 137.414 16.4342 137.111 16.1632C136.805 15.8923 136.436 15.756 136.01 15.756C135.396 15.756 134.916 16.0016 134.562 16.4944C134.212 16.9871 134.035 17.6161 134.035 18.3845C134.035 19.1229 134.203 19.7218 134.54 20.1828C134.897 20.674 135.377 20.9196 135.979 20.9196C136.519 20.9196 136.951 20.7152 137.279 20.3048C137.596 19.9262 137.752 19.4698 137.752 18.9375Z" fill="black"/>
<path d="M153.531 18.2935C153.531 19.4422 153.206 20.3833 152.556 21.1216C151.875 21.8805 150.973 22.2592 149.844 22.2592C148.759 22.2592 147.894 21.8964 147.247 21.1676C146.603 20.4403 146.281 19.523 146.281 18.4171C146.281 17.2604 146.613 16.3114 147.278 15.5747C147.944 14.8379 148.839 14.4688 149.968 14.4688C151.053 14.4688 151.928 14.8316 152.588 15.5588C153.216 16.2654 153.531 17.1781 153.531 18.2935ZM151.826 18.3473C151.826 17.6581 151.678 17.0672 151.385 16.5744C151.038 15.9787 150.548 15.6808 149.907 15.6808C149.248 15.6808 148.745 15.9787 148.398 16.5744C148.103 17.0672 147.957 17.6676 147.957 18.3774C147.957 19.0667 148.104 19.6576 148.398 20.1504C148.754 20.7461 149.251 21.044 149.891 21.044C150.519 21.044 151.014 20.7414 151.369 20.1345C151.672 19.6323 151.826 19.0365 151.826 18.3473Z" fill="black"/>
<path d="M162.379 22.0866H160.735V17.8088C160.735 16.4905 160.239 15.8314 159.242 15.8314C158.754 15.8314 158.359 16.0121 158.055 16.3749C157.75 16.7377 157.598 17.1655 157.598 17.6551V22.085H155.951V16.752C155.951 16.096 155.932 15.3846 155.893 14.6146H157.337L157.414 15.7823H157.46C157.653 15.4195 157.939 15.12 158.312 14.8808C158.76 14.6019 159.258 14.4609 159.806 14.4609C160.495 14.4609 161.07 14.6859 161.527 15.1375C162.097 15.6904 162.379 16.5159 162.379 17.6123V22.0866Z" fill="black"/>
<path d="M173.454 15.8577H171.641V19.486C171.641 20.4081 171.963 20.8692 172.601 20.8692C172.896 20.8692 173.141 20.8438 173.334 20.7915L173.377 22.0511C173.052 22.1747 172.624 22.2365 172.098 22.2365C171.448 22.2365 170.943 22.0369 170.577 21.6376C170.209 21.2383 170.027 20.5665 170.027 19.6238V15.8577H168.945V14.614H170.027V13.2451L171.64 12.7539V14.6124H173.452V15.8577H173.454Z" fill="black"/>
<path d="M182.167 22.0873H180.52V17.8411C180.52 16.5023 180.024 15.8321 179.03 15.8321C178.266 15.8321 177.745 16.2203 177.459 16.9966C177.411 17.1598 177.382 17.3594 177.382 17.5939V22.0857H175.738V11.1914H177.382V15.6927H177.414C177.932 14.8735 178.675 14.4648 179.637 14.4648C180.319 14.4648 180.883 14.6897 181.33 15.1413C181.888 15.7038 182.167 16.5403 182.167 17.6462V22.0873Z" fill="black"/>
<path d="M191.153 18.0006C191.153 18.2984 191.131 18.5488 191.092 18.7532H186.157C186.179 19.4915 186.414 20.0539 186.871 20.4437C187.289 20.7923 187.827 20.9666 188.487 20.9666C189.217 20.9666 189.883 20.8493 190.483 20.6132L190.74 21.7667C190.038 22.074 189.212 22.2277 188.256 22.2277C187.11 22.2277 186.207 21.8871 185.554 21.2058C184.897 20.5245 184.572 19.6103 184.572 18.4632C184.572 17.3367 184.875 16.3988 185.486 15.6509C186.124 14.8524 186.986 14.4531 188.074 14.4531C189.139 14.4531 189.947 14.8524 190.494 15.6509C190.935 16.2847 191.153 17.069 191.153 18.0006ZM189.583 17.5712C189.596 17.0785 189.487 16.6538 189.264 16.2958C188.978 15.8347 188.544 15.6034 187.955 15.6034C187.418 15.6034 186.98 15.8284 186.645 16.2799C186.372 16.6396 186.21 17.069 186.157 17.5712H189.583Z" fill="black"/>
</svg>
