<svg width="216" height="67" viewBox="0 0 216 67" fill="none" xmlns="http://www.w3.org/2000/svg">
<path d="M204.869 64.8246H10.7642C5.85024 64.8246 1.80605 60.8967 1.80605 56.064V10.5811C1.80605 5.74839 5.85024 1.82052 10.7642 1.82052H204.869C209.783 1.82052 213.827 5.74839 213.827 10.5811V56.064C213.827 60.8967 209.783 64.8246 204.869 64.8246Z" fill="#1B1642" stroke="#1B1642" stroke-width="1.90575"/>
<path d="M76.6328 18.5327C76.6328 19.7986 76.2446 20.8125 75.4798 21.5687C74.6005 22.4651 73.4553 22.9161 72.0519 22.9161C70.7107 22.9161 69.5654 22.4575 68.626 21.5535C67.6846 20.6363 67.2148 19.5106 67.2148 18.1631C67.2148 16.8157 67.6846 15.69 68.626 14.7803C69.5654 13.8688 70.7107 13.4102 72.0519 13.4102C72.7197 13.4102 73.3563 13.5447 73.9639 13.7949C74.5695 14.0469 75.0625 14.388 75.4196 14.8088L74.6083 15.6085C73.9852 14.8902 73.137 14.5359 72.0519 14.5359C71.0736 14.5359 70.2254 14.8694 69.5053 15.5422C68.7929 16.2168 68.4358 17.0905 68.4358 18.1631C68.4358 19.2358 68.7929 20.117 69.5053 20.7917C70.2254 21.4569 71.0736 21.798 72.0519 21.798C73.0904 21.798 73.9639 21.4569 74.6529 20.7841C75.1071 20.3387 75.3653 19.7247 75.4332 18.9401H72.0519V17.8447H76.5629C76.6173 18.0816 76.6328 18.3109 76.6328 18.5327Z" fill="white" stroke="white" stroke-width="0.304921" stroke-miterlimit="10"/>
<path d="M83.7884 14.7334H79.5511V17.614H83.3711V18.7094H79.5511V21.59H83.7884V22.7062H78.3516V13.6172H83.7884V14.7334Z" fill="white" stroke="white" stroke-width="0.304921" stroke-miterlimit="10"/>
<path d="M88.8396 22.7062H87.6401V14.7334H85.041V13.6172H91.4406V14.7334H88.8396V22.7062Z" fill="white" stroke="white" stroke-width="0.304921" stroke-miterlimit="10"/>
<path d="M96.0703 22.7062V13.6172H97.2679V22.7062H96.0703Z" fill="white" stroke="white" stroke-width="0.304921" stroke-miterlimit="10"/>
<path d="M102.58 22.7062H101.39V14.7334H98.7812V13.6172H105.189V14.7334H102.58V22.7062Z" fill="white" stroke="white" stroke-width="0.304921" stroke-miterlimit="10"/>
<path d="M117.301 21.5383C116.382 22.4575 115.245 22.9161 113.888 22.9161C112.524 22.9161 111.386 22.4575 110.468 21.5383C109.552 20.6211 109.096 19.4954 109.096 18.1631C109.096 16.8309 109.552 15.7052 110.468 14.7879C111.386 13.8688 112.524 13.4102 113.888 13.4102C115.237 13.4102 116.375 13.8688 117.293 14.7955C118.217 15.7203 118.673 16.8384 118.673 18.1631C118.673 19.4954 118.217 20.6211 117.301 21.5383ZM111.355 20.7765C112.046 21.4569 112.887 21.798 113.888 21.798C114.882 21.798 115.73 21.4569 116.413 20.7765C117.103 20.0962 117.452 19.2225 117.452 18.1631C117.452 17.1038 117.103 16.2301 116.413 15.5498C115.73 14.8694 114.882 14.5283 113.888 14.5283C112.887 14.5283 112.046 14.8694 111.355 15.5498C110.666 16.2301 110.317 17.1038 110.317 18.1631C110.317 19.2225 110.666 20.0962 111.355 20.7765Z" fill="white" stroke="white" stroke-width="0.304921" stroke-miterlimit="10"/>
<path d="M120.357 22.7062V13.6172H121.813L126.34 20.686H126.392L126.34 18.9387V13.6172H127.537V22.7062H126.287L121.547 15.2887H121.495L121.547 17.0436V22.7062H120.357Z" fill="white" stroke="white" stroke-width="0.304921" stroke-miterlimit="10"/>
<path d="M108.803 35.9821C105.155 35.9821 102.176 38.6921 102.176 42.4312C102.176 46.1399 105.155 48.8784 108.803 48.8784C112.458 48.8784 115.437 46.1399 115.437 42.4312C115.437 38.6921 112.458 35.9821 108.803 35.9821ZM108.803 46.3389C106.801 46.3389 105.08 44.7262 105.08 42.4312C105.08 40.1058 106.801 38.5215 108.803 38.5215C110.804 38.5215 112.533 40.1058 112.533 42.4312C112.533 44.7262 110.804 46.3389 108.803 46.3389ZM94.3438 35.9821C90.6888 35.9821 87.717 38.6921 87.717 42.4312C87.717 46.1399 90.6888 48.8784 94.3438 48.8784C97.9968 48.8784 100.97 46.1399 100.97 42.4312C100.97 38.6921 97.9968 35.9821 94.3438 35.9821ZM94.3438 46.3389C92.3406 46.3389 90.6131 44.7262 90.6131 42.4312C90.6131 40.1058 92.3406 38.5215 94.3438 38.5215C96.345 38.5215 98.0667 40.1058 98.0667 42.4312C98.0667 44.7262 96.345 46.3389 94.3438 46.3389ZM77.1383 37.9587V40.699H83.8408C83.6447 42.2303 83.1206 43.356 82.317 44.1406C81.3388 45.0881 79.815 46.1399 77.1383 46.1399C73.0136 46.1399 69.7837 42.8898 69.7837 38.8626C69.7837 34.8355 73.0136 31.5854 77.1383 31.5854C79.3686 31.5854 80.9913 32.4363 82.1889 33.5392L84.1669 31.6081C82.4917 30.0465 80.2634 28.8469 77.1383 28.8469C71.4821 28.8469 66.7285 33.3402 66.7285 38.8626C66.7285 44.385 71.4821 48.8784 77.1383 48.8784C80.1955 48.8784 82.4917 47.9005 84.2969 46.066C86.1467 44.2599 86.7232 41.7205 86.7232 39.67C86.7232 39.0332 86.6689 38.4476 86.5718 37.9587H77.1383ZM147.493 40.0831C146.948 38.6409 145.265 35.9821 141.837 35.9821C138.44 35.9821 135.612 38.5954 135.612 42.4312C135.612 46.0433 138.411 48.8784 142.163 48.8784C145.197 48.8784 146.948 47.0723 147.668 46.0205L145.417 44.5556C144.665 45.6282 143.642 46.3389 142.163 46.3389C140.694 46.3389 139.64 45.6813 138.964 44.385L147.798 40.8165L147.493 40.0831ZM138.487 42.2303C138.411 39.7439 140.465 38.4703 141.936 38.4703C143.089 38.4703 144.067 39.0332 144.394 39.8386L138.487 42.2303ZM131.307 48.4861H134.211V29.5348H131.307V48.4861ZM126.552 37.4186H126.454C125.802 36.6643 124.558 35.9821 122.982 35.9821C119.674 35.9821 116.65 38.8172 116.65 42.452C116.65 46.066 119.674 48.8784 122.982 48.8784C124.558 48.8784 125.802 48.1904 126.454 47.4134H126.552V48.3383C126.552 50.8038 125.202 52.1285 123.027 52.1285C121.252 52.1285 120.152 50.8777 119.698 49.8259L117.172 50.855C117.9 52.5644 119.828 54.668 123.027 54.668C126.431 54.668 129.304 52.7122 129.304 47.9535V36.3743H126.552V37.4186ZM123.23 46.3389C121.229 46.3389 119.554 44.7034 119.554 42.452C119.554 40.1797 121.229 38.5215 123.23 38.5215C125.202 38.5215 126.757 40.1797 126.757 42.452C126.757 44.7034 125.202 46.3389 123.23 46.3389ZM161.089 29.5348H154.143V48.4861H157.04V41.3055H161.089C164.305 41.3055 167.459 39.0332 167.459 35.4192C167.459 31.8071 164.297 29.5348 161.089 29.5348ZM161.164 38.6693H157.04V32.171H161.164C163.327 32.171 164.561 33.9239 164.561 35.4192C164.561 36.886 163.327 38.6693 161.164 38.6693ZM179.066 35.946C176.974 35.946 174.798 36.8481 173.903 38.8475L176.473 39.8993C177.026 38.8475 178.044 38.5064 179.119 38.5064C180.621 38.5064 182.145 39.3876 182.168 40.9435V41.1425C181.644 40.8468 180.522 40.4091 179.142 40.4091C176.374 40.4091 173.554 41.8967 173.554 44.6731C173.554 47.2126 175.821 48.848 178.37 48.848C180.318 48.848 181.394 47.9896 182.069 46.9908H182.168V48.4558H184.965V41.1861C184.965 37.826 182.395 35.946 179.066 35.946ZM178.717 46.3313C177.77 46.3313 176.45 45.8727 176.45 44.7262C176.45 43.2593 178.096 42.6965 179.521 42.6965C180.796 42.6965 181.394 42.9713 182.168 43.3332C181.941 45.0881 180.394 46.3313 178.717 46.3313ZM195.156 36.3611L191.827 44.5764H191.728L188.286 36.3611H185.163L190.334 47.8417L187.384 54.2302H190.41L198.378 36.3611H195.156ZM169.051 48.4861H171.954V29.5348H169.051V48.4861Z" fill="white"/>
<path d="M19.2084 14.4254C18.7523 14.8916 18.4883 15.6174 18.4883 16.5574V50.086C18.4883 51.0259 18.7523 51.7518 19.2084 52.218L19.321 52.3203L38.5645 33.5396V33.0962L19.321 14.3155L19.2084 14.4254Z" fill="url(#paint0_linear_526_24305)"/>
<path d="M44.9679 39.8086L38.5605 33.5452V33.1017L44.9757 26.8384L45.1193 26.9199L52.7166 31.1403C54.8847 32.338 54.8847 34.3089 52.7166 35.5142L45.1193 39.7271L44.9679 39.8086Z" fill="url(#paint1_linear_526_24305)"/>
<path d="M45.1161 39.723L38.5573 33.3194L19.2012 52.2194C19.9213 52.9585 21.0956 53.0476 22.4311 52.3085L45.1161 39.723Z" fill="url(#paint2_linear_526_24305)"/>
<path d="M45.1161 26.9167L22.4311 14.3312C21.0956 13.5997 19.9213 13.6887 19.2012 14.4278L38.5573 33.3203L45.1161 26.9167Z" fill="url(#paint3_linear_526_24305)"/>
<defs>
<linearGradient id="paint0_linear_526_24305" x1="36.8559" y1="50.4351" x2="11.4194" y2="24.3823" gradientUnits="userSpaceOnUse">
<stop stop-color="#00A0FF"/>
<stop offset="0.0066" stop-color="#00A1FF"/>
<stop offset="0.2601" stop-color="#00BEFF"/>
<stop offset="0.5122" stop-color="#00D2FF"/>
<stop offset="0.7604" stop-color="#00DFFF"/>
<stop offset="1" stop-color="#00E3FF"/>
</linearGradient>
<linearGradient id="paint1_linear_526_24305" x1="55.5399" y1="33.3214" x2="17.9661" y2="33.3214" gradientUnits="userSpaceOnUse">
<stop stop-color="#FFE000"/>
<stop offset="0.4087" stop-color="#FFBD00"/>
<stop offset="0.7754" stop-color="#FFA500"/>
<stop offset="1" stop-color="#FF9C00"/>
</linearGradient>
<linearGradient id="paint2_linear_526_24305" x1="41.5496" y1="29.8383" x2="7.05564" y2="-5.49152" gradientUnits="userSpaceOnUse">
<stop stop-color="#FF3A44"/>
<stop offset="1" stop-color="#C31162"/>
</linearGradient>
<linearGradient id="paint3_linear_526_24305" x1="14.3288" y1="63.3752" x2="29.7319" y2="47.599" gradientUnits="userSpaceOnUse">
<stop stop-color="#32A071"/>
<stop offset="0.0685" stop-color="#2DA771"/>
<stop offset="0.4762" stop-color="#15CF74"/>
<stop offset="0.8009" stop-color="#06E775"/>
<stop offset="1" stop-color="#00F076"/>
</linearGradient>
</defs>
</svg>
