<svg width="143" height="18" viewBox="0 0 143 18" fill="none" xmlns="http://www.w3.org/2000/svg">
<path fill-rule="evenodd" clip-rule="evenodd" d="M10.8805 9.26823L18.149 0.346977H21.7576V17.462H17.5363V7.04113L10.8787 15.1205L4.22126 7.04113V17.462H0V0.346977H3.64524L10.8805 9.26823ZM34.793 17.8669C31.7926 17.8669 29.1423 17.0775 27.025 15.331C24.8986 13.577 23.9556 11.3911 23.9556 8.93822C23.9556 6.47946 24.9011 4.28929 27.0384 2.53465C29.1574 0.794931 31.7951 0 34.793 0C37.8038 0 40.4521 0.797663 42.5824 2.54376C44.7206 4.29635 45.6777 6.47889 45.6777 8.93822C45.6777 11.3958 44.7254 13.5811 42.5883 15.3327C40.4601 17.0773 37.7996 17.8669 34.793 17.8669ZM61.6491 10.7122V0.346977H65.9059V17.462H63.3264L52.2389 7.09241V17.462H47.9822V0.346977H50.5981L61.6491 10.7122ZM78.8822 0.346977C81.871 0.346977 84.6383 1.02181 86.8125 2.73578C88.9425 4.41487 89.8615 6.55 89.8615 8.9479C89.8615 11.3234 88.9861 13.4756 86.8556 15.1345C84.6704 16.8361 81.855 17.462 78.8822 17.462H69.7369V0.346977H78.8822ZM92.2016 17.462V0.260266H96.4938V17.462H92.2016ZM114.033 10.7122V0.346977H118.29V17.462H115.71L104.623 7.09241V17.462H100.366V0.346977H102.982L114.033 10.7122ZM131.432 17.8669C128.431 17.8669 125.781 17.0775 123.664 15.331C121.538 13.577 120.595 11.3911 120.595 8.93822C120.595 6.47946 121.54 4.28929 123.677 2.53465C125.796 0.794931 128.434 0 131.432 0C134.443 0 137.091 0.797663 139.221 2.54376C141.36 4.29635 142.317 6.47889 142.317 8.93822C142.317 11.3958 141.364 13.5811 139.227 15.3327C137.099 17.0773 134.438 17.8669 131.432 17.8669ZM34.7989 14.5152C36.6298 14.5152 38.1905 14.0362 39.4643 12.9572C40.7802 11.8428 41.3145 10.4724 41.3145 8.93822C41.3145 7.40294 40.7808 6.02661 39.4683 4.90794C38.1962 3.82356 36.6251 3.35169 34.7989 3.35169C32.966 3.35169 31.407 3.83621 30.1346 4.9182C28.8214 6.03482 28.2834 7.40317 28.2834 8.93822C28.2834 10.4724 28.8176 11.8428 30.1333 12.9572C31.4074 14.0363 32.9681 14.5152 34.7989 14.5152ZM73.9936 3.66973V14.1394H78.8822C80.6905 14.1394 82.4623 13.7983 83.7868 12.7431C85.0811 11.7119 85.5337 10.3673 85.5337 8.91896C85.5337 7.45866 85.0446 6.13988 83.7498 5.10326C82.422 4.04042 80.7046 3.66973 78.8822 3.66973H73.9936ZM131.438 14.5152C133.269 14.5152 134.829 14.0362 136.103 12.9572C137.419 11.8428 137.953 10.4724 137.953 8.93822C137.953 7.40294 137.42 6.02661 136.107 4.90794C134.835 3.82356 133.264 3.35169 131.438 3.35169C129.605 3.35169 128.046 3.83621 126.774 4.9182C125.46 6.03482 124.922 7.40317 124.922 8.93822C124.922 10.4724 125.456 11.8428 126.772 12.9572C128.046 14.0363 129.607 14.5152 131.438 14.5152Z" fill="#1B1642"/>
</svg>
