<svg width="587" height="74" viewBox="0 0 587 74" fill="none" xmlns="http://www.w3.org/2000/svg">
<path fill-rule="evenodd" clip-rule="evenodd" d="M44.8321 38.1891L74.7822 1.42946H89.6512V71.9526H72.2578V29.0134L44.8255 62.3038L17.3933 29.0134V71.9526H0V1.42946H15.0191L44.8321 38.1891ZM143.364 73.6203C131.001 73.6203 120.081 70.3682 111.356 63.1719C102.595 55.943 98.7076 46.9371 98.7076 36.8298C98.7076 26.6979 102.604 17.674 111.411 10.4435C120.143 3.27503 131.011 0 143.364 0C155.77 0 166.682 3.28644 175.459 10.4811C184.271 17.7034 188.214 26.6963 188.214 36.8298C188.214 46.9567 184.291 55.961 175.484 63.1784C166.715 70.3665 155.752 73.6203 143.364 73.6203ZM254.024 44.1402V1.42946H271.564V71.9526H260.935L215.249 29.2239V71.9526H197.711V1.42946H208.489L254.024 44.1402ZM325.034 1.42946C337.349 1.42946 348.75 4.21002 357.71 11.2725C366.486 18.1913 370.274 26.99 370.274 36.8689C370.274 46.6581 366.666 55.5269 357.887 62.3609C348.882 69.3728 337.282 71.9526 325.034 71.9526H287.35V1.42946H325.034ZM379.916 71.9526V1.07206H397.601V71.9526H379.916ZM469.872 44.1402V1.42946H487.412V71.9526H476.783L431.097 29.2239V71.9526H413.559V1.42946H424.337L469.872 44.1402ZM541.564 73.6203C529.2 73.6203 518.28 70.3682 509.556 63.1719C500.793 55.943 496.908 46.9371 496.908 36.8298C496.908 26.6979 500.805 17.674 509.61 10.4435C518.342 3.27503 529.211 0 541.564 0C553.97 0 564.882 3.28644 573.66 10.4811C582.47 17.7034 586.414 26.6963 586.414 36.8298C586.414 46.9567 582.489 55.961 573.684 63.1784C564.915 70.3665 553.953 73.6203 541.564 73.6203ZM143.388 59.8104C150.932 59.8104 157.363 57.8359 162.612 53.3893C168.033 48.7974 170.236 43.1513 170.236 36.8298C170.236 30.5033 168.036 24.8327 162.629 20.2229C157.387 15.755 150.912 13.8099 143.388 13.8099C135.836 13.8099 129.412 15.8073 124.169 20.2653C118.758 24.867 116.542 30.5049 116.542 36.8298C116.542 43.1513 118.743 48.7974 124.164 53.3893C129.413 57.8359 135.844 59.8104 143.388 59.8104ZM304.889 15.1203V58.2602H325.034C332.484 58.2602 339.785 56.8552 345.244 52.5081C350.576 48.2589 352.441 42.7189 352.441 36.7498C352.441 30.7333 350.424 25.2994 345.09 21.0274C339.619 16.6492 332.541 15.1203 325.034 15.1203H304.889ZM541.588 59.8104C549.132 59.8104 555.563 57.8359 560.813 53.3893C566.233 48.7974 568.435 43.1513 568.435 36.8298C568.435 30.5033 566.237 24.8327 560.829 20.2229C555.586 15.755 549.112 13.8099 541.588 13.8099C534.035 13.8099 527.612 15.8073 522.369 20.2653C516.958 24.867 514.74 30.5049 514.74 36.8298C514.74 43.1513 516.942 48.7974 522.364 53.3893C527.614 57.8359 534.044 59.8104 541.588 59.8104Z" fill="#0E1B4F"/>
</svg>
